<svg xmlns="http://www.w3.org/2000/svg" viewBox="0 0 514.85 768"><defs><style>.cls-1{fill:#fff;}</style></defs><title>Logo</title><g id="Layer_2" data-name="Layer 2"><path class="cls-1" d="M937.54,374.08,698.11,8a17.67,17.67,0,0,0-29.58,0L428.46,375.05a17.65,17.65,0,0,0,0,19.35L588.82,639.58a17.67,17.67,0,0,0,29.58,0L777.23,396.74a17.67,17.67,0,0,0,0-19.34l-81-123.8a17.67,17.67,0,0,0-29.58,0L586.92,375.54a17.67,17.67,0,1,0,29.58,19.34l65-99.33,59.85,91.52L603.61,597.62,464.36,384.73l201-307.27V145.6a17.67,17.67,0,1,0,35.34,0V76.49l201,307.27L668.21,740.65A17.67,17.67,0,1,0,697.79,760L937.54,393.43A17.65,17.65,0,0,0,937.54,374.08Z" transform="translate(-425.57)"/><circle class="cls-1" cx="683" cy="202.3" r="24.07" transform="translate(-453.78 162.33) rotate(-13.28)"/></g></svg>